<?xml version="1.0" encoding="UTF-8" standalone="no"?>
<!DOCTYPE svg PUBLIC "-//W3C//DTD SVG 1.1//EN" "http://www.w3.org/Graphics/SVG/1.1/DTD/svg11.dtd">
<!-- Created with Vectornator (http://vectornator.io/) -->
<svg height="100%" stroke-miterlimit="10" style="fill-rule:nonzero;clip-rule:evenodd;stroke-linecap:round;stroke-linejoin:round;" version="1.1" viewBox="0 0 1024 1024" width="100%" xml:space="preserve" xmlns="http://www.w3.org/2000/svg" xmlns:vectornator="http://vectornator.io" xmlns:xlink="http://www.w3.org/1999/xlink">
<defs/>
<g id="Layer-1" vectornator:layerName="Layer 1">
<g opacity="1" vectornator:layerName="Group 1">
<path d="M489.916 151.109C482.604 143.691 471.105 137.363 460.914 139.499C430.167 145.946 398.898 151.93 369.929 164.096C339.195 177.002 310.604 194.943 283.308 214.085C277.609 218.08 273.597 225.243 272.854 232.168C272.146 238.773 277.183 244.728 279.348 251.008C271.429 247.928 263.789 239.54 255.59 241.769C244.616 244.752 237.394 255.717 230.053 264.409C214.768 282.51 199.907 301.233 188.051 321.748C145.22 395.862 135.04 467.767 137.293 552.102C137.49 559.48 138.551 567.101 141.603 573.82C143.705 578.447 151.124 579.84 152.155 584.817C153.711 592.327 146.834 600.082 148.591 607.548C154.309 631.845 162.647 655.77 174.075 677.957C177.633 684.866 184.899 690.173 192.323 692.453C198.054 694.213 204.088 690.138 209.97 688.98C205.71 693.447 198.738 696.403 197.19 702.381C195.446 709.114 197.861 716.756 201.194 722.859C208.166 735.625 217.688 746.923 227.419 757.731C241.086 772.912 255.591 787.429 271.193 800.608C360.544 876.084 482.904 903.435 596.562 877.4C617.841 872.525 639.02 866.453 659.026 857.712C664.906 855.144 670.676 850.239 672.685 844.141C674.963 837.223 671.338 829.634 670.664 822.381C675.18 827.417 677.739 835.532 684.21 837.489C691.278 839.626 699.471 836.655 705.908 833.036C724.288 822.705 741.273 809.884 757.429 796.332C800.726 760.016 835.846 710.294 857.181 658.012C859.826 651.531 862.668 643.616 859.902 637.186C856.773 629.914 847.751 627.045 841.675 621.974C847.709 621.793 868.85 625.835 872.622 613.558C878.71 593.74 882.947 573.219 884.857 552.573C887.271 526.494 887.849 500.092 885.536 474.004C881.046 423.342 863.967 375.571 840.024 330.995C832.567 317.112 822.942 304.118 811.458 293.333C790.347 273.508 756.939 276.123 735.131 293.168C678.967 337.065 625.615 384.453 570.857 430.095C593.468 358.999 618.693 288.683 638.688 216.806C641.828 205.519 642.953 193.009 639.962 181.682C633.794 158.325 604.4 146.911 584.749 143.382C558.362 138.643 531.243 135.531 504.522 137.708C497.939 138.245 494.785 146.642 489.916 151.109Z" fill="#0d652d" fill-rule="nonzero" opacity="1" stroke="none"/>
<path d="M486.873 321.059C484.814 269.061 484.339 216.976 480.696 165.065C480.373 160.465 476.925 156.649 475.039 152.441C444.472 155.435 413.146 159.675 384.981 171.935C354.7 185.118 325.995 201.745 297.404 218.281C295.018 219.661 280.997 229.755 285.723 237.114C323.035 295.218 363.023 351.555 401.672 408.775C359.128 359.936 318.473 309.381 274.038 262.257C269.442 257.383 261.829 256.748 255.724 253.994C239.226 274.484 220.532 293.382 206.231 315.463C170.864 370.07 150.462 436.772 147.348 501.727C146.581 517.71 148.283 533.73 149.569 549.68C149.923 554.07 149.535 575.628 162.064 574.83C200.969 572.349 239.442 565.244 278.131 560.451C219.403 577.507 219.403 577.507 160.675 594.563C164.021 609.882 165.344 625.789 170.713 640.52C175.785 654.433 184.705 666.621 191.7 679.672C271.735 643.818 271.735 643.818 351.769 607.964C279.957 657.914 279.957 657.914 208.144 707.863C218.054 722.253 226.594 737.693 237.874 751.034C312.511 839.307 430.59 884.642 544.869 874.768C584.909 871.309 623.495 856.56 660.773 841.528C633.464 759.162 633.464 759.162 606.155 676.797C647.538 751.417 647.538 751.417 688.922 826.036C766.708 791.205 819.126 718.443 847.82 640.383C770.805 602.245 770.805 602.245 693.79 564.106C775.753 587.537 775.753 587.537 857.716 610.969C869.405 591.574 871.518 567.363 872.997 544.76C874.575 520.646 875.114 496.294 872.548 472.265C867.345 423.556 850.037 375.808 827.162 332.5C821.697 322.153 815.709 311.534 806.897 303.84C799.034 296.974 789.139 290.678 778.715 290.2C767.314 289.677 755.372 294.207 746.239 301.058C684.153 347.631 628.095 401.85 566.656 449.275C563.266 451.891 558.097 449.483 553.817 449.588C578.734 368.332 606.783 287.972 628.569 205.82C630.949 196.842 630.515 186.1 625.814 178.091C620.941 169.788 611.656 163.8 602.388 161.213C575.035 153.579 546.533 150.211 518.218 148.061C512.812 147.651 503.914 148.322 502.946 153.662C492.953 208.818 492.231 265.26 486.873 321.059Z" fill="#34ab53" fill-rule="nonzero" opacity="1" stroke="none"/>
</g>
</g>
</svg>
