<svg width="358" height="270" viewBox="0 0 358 270" fill="none" xmlns="http://www.w3.org/2000/svg">
<g clip-path="url(#clip0_50_338)">
<path d="M164.912 57.5996H76.6947C76.2616 57.5991 75.8463 57.4269 75.5401 57.1206C75.2338 56.8143 75.0615 56.3991 75.061 55.966V34.083C75.0615 33.6499 75.2338 33.2346 75.5401 32.9284C75.8463 32.6221 76.2616 32.4498 76.6947 32.4493H164.912C165.345 32.4498 165.761 32.6221 166.067 32.9284C166.373 33.2346 166.545 33.6499 166.546 34.083V55.966C166.545 56.3991 166.373 56.8143 166.067 57.1206C165.761 57.4269 165.345 57.5991 164.912 57.5996ZM76.6947 33.1028C76.4348 33.1031 76.1857 33.2064 76.0019 33.3902C75.8182 33.574 75.7148 33.8231 75.7145 34.083V55.966C75.7148 56.2259 75.8182 56.475 76.0019 56.6588C76.1857 56.8425 76.4348 56.9459 76.6947 56.9462H164.912C165.172 56.9459 165.421 56.8425 165.605 56.6588C165.789 56.475 165.892 56.2259 165.892 55.966V34.083C165.892 33.8231 165.789 33.574 165.605 33.3902C165.421 33.2064 165.172 33.1031 164.912 33.1028L76.6947 33.1028Z" fill="#3F3D56"/>
<path d="M90.402 50.8396C94.0772 50.8396 97.0566 47.8602 97.0566 44.1849C97.0566 40.5097 94.0772 37.5303 90.402 37.5303C86.7267 37.5303 83.7473 40.5097 83.7473 44.1849C83.7473 47.8602 86.7267 50.8396 90.402 50.8396Z" fill="#4285F4"/>
<path d="M105.771 39.7484C105.477 39.7484 105.195 39.8653 104.987 40.0733C104.779 40.2813 104.662 40.5634 104.662 40.8575C104.662 41.1517 104.779 41.4338 104.987 41.6418C105.195 41.8498 105.477 41.9666 105.771 41.9666H158.057C158.352 41.9666 158.634 41.8498 158.842 41.6418C159.05 41.4338 159.167 41.1517 159.167 40.8575C159.167 40.5634 159.05 40.2813 158.842 40.0733C158.634 39.8653 158.352 39.7484 158.057 39.7484H105.771Z" fill="#E6E6E6"/>
<path d="M105.771 46.4031C105.477 46.4031 105.195 46.5199 104.987 46.7279C104.779 46.9359 104.662 47.218 104.662 47.5122C104.662 47.8063 104.779 48.0884 104.987 48.2964C105.195 48.5044 105.477 48.6213 105.771 48.6213H128.27C128.416 48.6216 128.56 48.5931 128.695 48.5374C128.83 48.4818 128.952 48.4002 129.056 48.2972C129.159 48.1941 129.241 48.0718 129.297 47.9371C129.352 47.8024 129.381 47.658 129.381 47.5122C129.381 47.3664 129.352 47.222 129.297 47.0873C129.241 46.9526 129.159 46.8302 129.056 46.7272C128.952 46.6242 128.83 46.5425 128.695 46.4869C128.56 46.4313 128.416 46.4028 128.27 46.4031H105.771Z" fill="#E6E6E6"/>
<path d="M126.613 135.603H87.4056C86.9725 135.602 86.5573 135.43 86.251 135.123C85.9448 134.817 85.7725 134.402 85.772 133.969V93.1355C85.7725 92.7024 85.9448 92.2871 86.251 91.9809C86.5573 91.6746 86.9725 91.5023 87.4056 91.5018H126.613C127.047 91.5023 127.462 91.6746 127.768 91.9809C128.074 92.2871 128.247 92.7024 128.247 93.1355V133.969C128.247 134.402 128.074 134.817 127.768 135.123C127.462 135.43 127.047 135.602 126.613 135.603ZM87.4056 92.1553C87.1457 92.1556 86.8966 92.2589 86.7128 92.4427C86.5291 92.6265 86.4257 92.8756 86.4254 93.1355V133.969C86.4257 134.229 86.5291 134.478 86.7128 134.662C86.8966 134.845 87.1457 134.949 87.4056 134.949H126.613C126.873 134.949 127.123 134.845 127.306 134.662C127.49 134.478 127.593 134.229 127.594 133.969V93.1355C127.593 92.8756 127.49 92.6265 127.306 92.4427C127.123 92.2589 126.873 92.1556 126.613 92.1553H87.4056Z" fill="#3F3D56"/>
<path d="M95.7601 99.9224C95.4659 99.9224 95.1838 100.039 94.9758 100.247C94.7678 100.455 94.6509 100.737 94.6509 101.031C94.6509 101.326 94.7678 101.608 94.9758 101.816C95.1838 102.024 95.4659 102.141 95.7601 102.141H118.259C118.553 102.141 118.835 102.024 119.043 101.816C119.251 101.608 119.368 101.326 119.368 101.031C119.368 100.737 119.251 100.455 119.043 100.247C118.835 100.039 118.553 99.9224 118.259 99.9224H95.7601Z" fill="#E6E6E6"/>
<path d="M95.7601 106.457C95.6142 106.457 95.4698 106.485 95.335 106.541C95.2002 106.596 95.0777 106.678 94.9745 106.781C94.8713 106.884 94.7894 107.007 94.7335 107.141C94.6777 107.276 94.6489 107.42 94.6489 107.566C94.6489 107.712 94.6777 107.856 94.7335 107.991C94.7894 108.126 94.8713 108.248 94.9745 108.351C95.0777 108.454 95.2002 108.536 95.335 108.591C95.4698 108.647 95.6142 108.676 95.7601 108.675H118.259C118.553 108.675 118.835 108.558 119.043 108.35C119.251 108.142 119.368 107.86 119.368 107.566C119.368 107.272 119.251 106.99 119.043 106.782C118.835 106.574 118.553 106.457 118.259 106.457H95.7601Z" fill="#E6E6E6"/>
<path d="M107.01 127.182C105.629 127.182 104.279 126.772 103.131 126.005C101.983 125.238 101.088 124.148 100.56 122.872C100.031 121.597 99.8931 120.193 100.162 118.839C100.432 117.484 101.097 116.24 102.073 115.264C103.049 114.288 104.293 113.623 105.648 113.353C107.002 113.084 108.406 113.222 109.681 113.751C110.957 114.279 112.047 115.174 112.814 116.322C113.582 117.47 113.991 118.82 113.991 120.201C113.989 122.051 113.253 123.826 111.944 125.135C110.635 126.444 108.861 127.18 107.01 127.182Z" fill="#EA4335"/>
<path d="M190.843 0H230.05C230.484 0.000508575 230.899 0.172788 231.205 0.479048C231.511 0.785307 231.684 1.20054 231.684 1.63366V42.467C231.684 42.9002 231.511 43.3154 231.205 43.6216C230.899 43.9279 230.484 44.1002 230.05 44.1007H190.843C190.409 44.1002 189.994 43.9279 189.688 43.6216C189.382 43.3154 189.209 42.9002 189.209 42.467V1.63366C189.209 1.20054 189.382 0.785307 189.688 0.479048C189.994 0.172788 190.409 0.000508575 190.843 0ZM230.05 43.4472C230.31 43.4469 230.559 43.3436 230.743 43.1598C230.927 42.9761 231.03 42.7269 231.031 42.467V1.63366C231.03 1.37378 230.927 1.12463 230.743 0.940866C230.559 0.757106 230.31 0.653745 230.05 0.653461H190.843C190.583 0.653745 190.333 0.757106 190.15 0.940866C189.966 1.12463 189.863 1.37378 189.862 1.63366V42.467C189.863 42.7269 189.966 42.9761 190.15 43.1598C190.333 43.3436 190.583 43.4469 190.843 43.4472H230.05Z" fill="#3F3D56"/>
<path d="M221.696 35.6801C221.99 35.6801 222.272 35.5633 222.48 35.3553C222.688 35.1473 222.805 34.8652 222.805 34.571C222.805 34.2769 222.688 33.9948 222.48 33.7868C222.272 33.5788 221.99 33.4619 221.696 33.4619H199.197C198.903 33.4619 198.621 33.5788 198.413 33.7868C198.205 33.9948 198.088 34.2769 198.088 34.571C198.088 34.8652 198.205 35.1473 198.413 35.3553C198.621 35.5633 198.903 35.6801 199.197 35.6801H221.696Z" fill="#E6E6E6"/>
<path d="M221.696 29.1455C221.99 29.1455 222.272 29.0286 222.48 28.8206C222.688 28.6126 222.805 28.3305 222.805 28.0364C222.805 27.7422 222.688 27.4601 222.48 27.2521C222.272 27.0441 221.99 26.9272 221.696 26.9272H199.197C198.903 26.9272 198.621 27.0441 198.413 27.2521C198.205 27.4601 198.088 27.7422 198.088 28.0364C198.088 28.3305 198.205 28.6126 198.413 28.8206C198.621 29.0286 198.903 29.1455 199.197 29.1455H221.696Z" fill="#E6E6E6"/>
<path d="M210.446 8.42053C211.827 8.42053 213.177 8.82998 214.325 9.5971C215.473 10.3642 216.368 11.4545 216.896 12.7302C217.425 14.0059 217.563 15.4096 217.294 16.7638C217.024 18.1181 216.359 19.362 215.383 20.3384C214.407 21.3148 213.163 21.9797 211.808 22.249C210.454 22.5184 209.05 22.3802 207.775 21.8518C206.499 21.3234 205.409 20.4285 204.642 19.2805C203.874 18.1324 203.465 16.7826 203.465 15.4019C203.467 13.5509 204.203 11.7764 205.512 10.4676C206.821 9.15883 208.595 8.42263 210.446 8.42053Z" fill="#34A853"/>
<path d="M75.5649 84.478C82.503 79.1044 90.6089 75.4401 99.2265 73.7816C107.913 72.1264 116.869 72.5867 125.34 75.1234C129.598 76.3913 133.689 78.164 137.526 80.4037C141.436 82.6892 144.969 85.5026 148.368 88.4815C151.811 91.4991 155.141 94.6511 158.735 97.492C168.997 105.695 181.737 110.176 194.874 110.205C195.96 110.207 197.044 110.177 198.128 110.115C198.716 110.083 198.719 109.165 198.128 109.197C184.737 109.935 171.512 105.939 160.77 97.9087C157.045 95.1229 153.643 91.9377 150.17 88.8511C146.804 85.8586 143.347 82.9476 139.527 80.5434C130.184 74.6573 119.314 71.6526 108.274 71.9043C97.2346 72.1559 86.5133 75.6527 77.448 81.9584C76.5861 82.5577 75.7441 83.1841 74.9157 83.8289C74.45 84.1913 75.1039 84.8368 75.5649 84.478Z" fill="#3F3D56"/>
<path d="M75.0775 88.9157C77.7125 88.9157 79.8486 86.7795 79.8486 84.1445C79.8486 81.5095 77.7125 79.3734 75.0775 79.3734C72.4424 79.3734 70.3063 81.5095 70.3063 84.1445C70.3063 86.7795 72.4424 88.9157 75.0775 88.9157Z" fill="#3F3D56"/>
<path d="M252.573 152.263C255.208 152.263 257.344 150.127 257.344 147.492C257.344 144.857 255.208 142.721 252.573 142.721C249.938 142.721 247.802 144.857 247.802 147.492C247.802 150.127 249.938 152.263 252.573 152.263Z" fill="#3F3D56"/>
<path d="M277.567 120.313H199.717C199.284 120.313 198.869 120.141 198.563 119.834C198.256 119.528 198.084 119.113 198.084 118.68V78.173C198.084 77.7399 198.256 77.3246 198.563 77.0184C198.869 76.7121 199.284 76.5398 199.717 76.5393H277.567C278.001 76.5398 278.416 76.7121 278.722 77.0184C279.028 77.3246 279.201 77.7398 279.201 78.173V118.68C279.201 119.113 279.028 119.528 278.722 119.834C278.416 120.141 278.001 120.313 277.567 120.313ZM199.717 77.1928C199.457 77.1931 199.208 77.2964 199.024 77.4802C198.841 77.664 198.737 77.9131 198.737 78.173V118.68C198.737 118.939 198.841 119.189 199.024 119.372C199.208 119.556 199.457 119.66 199.717 119.66H277.567C277.827 119.66 278.076 119.556 278.26 119.372C278.444 119.189 278.547 118.939 278.548 118.68V78.173C278.547 77.9131 278.444 77.664 278.26 77.4802C278.076 77.2964 277.827 77.1931 277.567 77.1928H199.717Z" fill="#3F3D56"/>
<path d="M212.771 97.5434C216.446 97.5434 219.426 94.564 219.426 90.8888C219.426 87.2135 216.446 84.2341 212.771 84.2341C209.096 84.2341 206.116 87.2135 206.116 90.8888C206.116 94.564 209.096 97.5434 212.771 97.5434Z" fill="#4285F4"/>
<path d="M228.14 86.4523C227.994 86.452 227.85 86.4805 227.715 86.5361C227.58 86.5917 227.458 86.6734 227.354 86.7764C227.251 86.8794 227.169 87.0018 227.114 87.1365C227.058 87.2712 227.029 87.4156 227.029 87.5614C227.029 87.7072 227.058 87.8516 227.114 87.9863C227.169 88.121 227.251 88.2433 227.354 88.3464C227.458 88.4494 227.58 88.531 227.715 88.5866C227.85 88.6423 227.994 88.6708 228.14 88.6705H270.059C270.353 88.6705 270.636 88.5536 270.844 88.3456C271.052 88.1376 271.168 87.8555 271.168 87.5614C271.168 87.2672 271.052 86.9851 270.844 86.7771C270.636 86.5691 270.353 86.4523 270.059 86.4523H228.14Z" fill="#E6E6E6"/>
<path d="M228.14 93.1069C227.994 93.1067 227.85 93.1352 227.715 93.1908C227.58 93.2464 227.458 93.3281 227.354 93.4311C227.251 93.5341 227.169 93.6564 227.114 93.7911C227.058 93.9258 227.029 94.0702 227.029 94.216C227.029 94.3619 227.058 94.5062 227.114 94.6409C227.169 94.7756 227.251 94.898 227.354 95.001C227.458 95.104 227.58 95.1857 227.715 95.2413C227.85 95.2969 227.994 95.3254 228.14 95.3252H250.639C250.933 95.3252 251.215 95.2083 251.423 95.0003C251.631 94.7923 251.748 94.5102 251.748 94.216C251.748 93.9219 251.631 93.6398 251.423 93.4318C251.215 93.2238 250.933 93.1069 250.639 93.1069H228.14Z" fill="#E6E6E6"/>
<path d="M207.667 103.746C206.823 103.746 206.136 104.243 206.136 104.855C206.136 105.466 206.823 105.964 207.667 105.964H269.439C270.282 105.964 270.969 105.466 270.969 104.855C270.969 104.243 270.282 103.746 269.439 103.746H207.667Z" fill="#E6E6E6"/>
<path d="M207.667 110.4C206.823 110.4 206.136 110.898 206.136 111.509C206.136 112.121 206.823 112.619 207.667 112.619H269.439C270.282 112.619 270.969 112.121 270.969 111.509C270.969 110.898 270.282 110.4 269.439 110.4H207.667Z" fill="#E6E6E6"/>
<path d="M193.459 151.934C197.851 150.028 202.755 151.69 206.895 153.446C209.027 154.35 211.136 155.315 213.342 156.029C215.198 156.629 217.099 157.079 219.027 157.377C222.895 157.969 226.829 157.993 230.705 157.448C234.6 156.905 238.396 155.801 241.975 154.171C245.533 152.558 248.823 150.407 251.728 147.794C252.098 147.46 252.46 147.119 252.815 146.77C253.238 146.356 252.589 145.707 252.166 146.121C249.369 148.847 246.157 151.114 242.651 152.837C239.159 154.554 235.435 155.751 231.596 156.389C227.745 157.038 223.819 157.106 219.947 156.59C218.016 156.329 216.109 155.914 214.244 155.35C212.101 154.653 209.999 153.837 207.948 152.905C203.77 151.111 199.128 149.353 194.536 150.591C194.01 150.737 193.495 150.92 192.996 151.141C192.455 151.376 192.922 152.167 193.459 151.934Z" fill="#3F3D56"/>
<path d="M191.762 163.194H154.982L163.638 148.201C163.793 147.933 164.016 147.71 164.285 147.554C164.553 147.399 164.858 147.318 165.168 147.318C165.479 147.318 165.784 147.399 166.052 147.554C166.321 147.71 166.544 147.933 166.699 148.201L170.397 154.606L176.684 143.716C176.878 143.38 177.158 143.1 177.494 142.906C177.83 142.712 178.212 142.61 178.6 142.61C178.989 142.61 179.371 142.712 179.707 142.906C180.043 143.1 180.323 143.38 180.517 143.716L191.762 163.194Z" fill="#FBBC04"/>
<path d="M191.797 163.19H152.589C152.156 163.189 151.741 163.017 151.435 162.711C151.128 162.405 150.956 161.989 150.956 161.556V139.673C150.956 139.24 151.128 138.825 151.435 138.519C151.741 138.212 152.156 138.04 152.589 138.04H191.797C192.23 138.04 192.645 138.212 192.952 138.519C193.258 138.825 193.43 139.24 193.431 139.673V161.556C193.43 161.989 193.258 162.405 192.952 162.711C192.645 163.017 192.23 163.189 191.797 163.19ZM152.589 138.693C152.329 138.693 152.08 138.797 151.896 138.98C151.713 139.164 151.609 139.413 151.609 139.673V161.556C151.609 161.816 151.713 162.065 151.896 162.249C152.08 162.433 152.329 162.536 152.589 162.536H191.797C192.057 162.536 192.306 162.433 192.49 162.249C192.674 162.065 192.777 161.816 192.777 161.556V139.673C192.777 139.413 192.674 139.164 192.49 138.98C192.306 138.797 192.057 138.693 191.797 138.693H152.589Z" fill="#3F3D56"/>
<path d="M268.698 143.931L261.71 147.479C259.215 148.746 256.808 148.53 255.886 145.888C255.666 145.26 255.586 144.591 255.648 143.928C255.711 143.266 255.917 142.624 256.251 142.048C256.584 141.472 257.039 140.975 257.582 140.591C258.126 140.207 258.746 139.945 259.401 139.823L266.043 138.583L294.49 129.145L311.722 116.926L318.039 126.99L298.128 137.734L268.698 143.931Z" fill="#FFB8B8"/>
<path d="M301.322 261.728L295.975 260.836L296.569 250.736H302.213L301.322 261.728Z" fill="#FFB8B8"/>
<path d="M353.218 251.863L348.043 253.477L344.022 244.194L349.06 241.65L353.218 251.863Z" fill="#FFB8B8"/>
<path d="M350.336 243.013L343.801 245.686L312.61 204.693L302.807 252.816L296.272 251.628C292.08 210.139 288.661 167.821 292.856 147.806L317.066 146.767L328.057 181.819L333.404 205.584L350.336 243.013Z" fill="#2F2E41"/>
<path d="M301.028 269.896C300.05 270.105 299.031 269.997 298.119 269.587L294.943 268.157C292.279 268.021 290.466 268.551 288.983 266.616C288.565 266.063 288.302 265.408 288.222 264.719C288.142 264.03 288.248 263.332 288.529 262.698C288.808 262.062 289.25 261.511 289.812 261.102C290.374 260.694 291.034 260.442 291.725 260.373L296.088 257.624L296.317 259.684C298.311 260.814 300.678 260.326 303.187 259.227L304.556 264.019C304.733 264.637 304.78 265.285 304.696 265.922C304.612 266.559 304.398 267.172 304.067 267.723C303.736 268.274 303.296 268.751 302.773 269.125C302.25 269.499 301.656 269.761 301.028 269.896Z" fill="#2F2E41"/>
<path d="M355.335 260.065C354.479 260.581 353.48 260.809 352.484 260.717L349.016 260.397C346.452 261.132 344.909 262.223 342.878 260.874C342.303 260.487 341.842 259.952 341.543 259.327C341.243 258.701 341.117 258.007 341.177 257.316C341.234 256.623 341.473 255.959 341.872 255.39C342.27 254.821 342.813 254.368 343.444 254.079L346.678 250.062L347.564 251.937C349.817 252.358 351.897 251.127 353.913 249.273L356.764 253.361C357.132 253.888 357.387 254.485 357.515 255.115C357.642 255.745 357.639 256.394 357.505 257.023C357.371 257.652 357.109 258.246 356.736 258.769C356.363 259.292 355.886 259.733 355.335 260.065Z" fill="#2F2E41"/>
<path d="M308.154 104.585C314.06 104.585 318.848 99.7967 318.848 93.8906C318.848 87.9844 314.06 83.1965 308.154 83.1965C302.248 83.1965 297.46 87.9844 297.46 93.8906C297.46 99.7967 302.248 104.585 308.154 104.585Z" fill="#FFB8B8"/>
<path d="M321.225 116.467L307.263 113.496L305.481 101.911L315.284 99.8318L321.225 116.467Z" fill="#FFB8B8"/>
<path d="M317.363 148.252H292.41L298.035 134.131C297.626 129.272 299.685 125.698 302.633 122.587L306.372 113.199C312.414 109.223 316.968 109.52 321.819 114.685C327.57 122.827 323.589 135.067 317.363 148.252Z" fill="#4285F4"/>
<path d="M306.075 178.255L305.365 186.061C305.112 188.847 303.649 190.771 300.922 190.147C300.273 189.999 299.663 189.712 299.135 189.306C298.608 188.901 298.174 188.386 297.863 187.797C297.553 187.208 297.373 186.559 297.337 185.894C297.301 185.23 297.408 184.565 297.653 183.946L300.134 177.661L307.263 148.549L306.075 127.458H317.957L316.472 150.034L306.075 178.255Z" fill="#FFB8B8"/>
<path d="M318.848 128.052H305.184L306.142 119.138C306.205 117.596 306.842 116.134 307.928 115.038C309.014 113.942 310.47 113.291 312.011 113.214C312.828 113.174 313.645 113.295 314.414 113.572C315.183 113.849 315.89 114.275 316.493 114.827C317.097 115.379 317.585 116.045 317.929 116.787C318.273 117.528 318.467 118.331 318.499 119.148L318.848 128.052Z" fill="#4285F4"/>
<path d="M321.39 82.8947C323.61 82.8947 325.409 81.095 325.409 78.8751C325.409 76.6551 323.61 74.8555 321.39 74.8555C319.17 74.8555 317.37 76.6551 317.37 78.8751C317.37 81.095 319.17 82.8947 321.39 82.8947Z" fill="#2F2E41"/>
<path d="M317.248 77.8911C317.314 76.8713 317.766 75.915 318.513 75.2169C319.259 74.5189 320.244 74.1317 321.266 74.1342C321.183 74.1237 321.1 74.1109 321.016 74.1054C319.952 74.0377 318.905 74.395 318.105 75.0989C317.305 75.8028 316.817 76.7955 316.749 77.859C316.68 78.9225 317.037 79.9696 317.741 80.7701C318.444 81.5706 319.436 82.0591 320.5 82.1281C320.584 82.1335 320.668 82.1313 320.751 82.1315C319.737 82.0031 318.811 81.493 318.16 80.7052C317.509 79.9173 317.183 78.911 317.248 77.8911Z" fill="#2F2E41"/>
<path d="M317.225 79.6076C313.64 76.6337 303.358 80.4133 302.694 82.4127C297.847 83.0734 294.176 85.9017 294.176 90.9307C297.059 92.1114 300.336 91.9659 303.88 90.9307C309.528 95.5338 309.915 101.32 306.48 107.967L310.706 108.051L315.945 100.395L316.195 108.161L325.882 107.967V96.8378C325.914 93.1375 325.062 89.4831 323.398 86.178C321.889 83.2452 319.546 81.5327 317.225 79.6076Z" fill="#2F2E41"/>
<path d="M308.204 99.2699C309.266 99.2699 310.127 98.0651 310.127 96.5789C310.127 95.0926 309.266 93.8878 308.204 93.8878C307.143 93.8878 306.282 95.0926 306.282 96.5789C306.282 98.0651 307.143 99.2699 308.204 99.2699Z" fill="#FFB8B8"/>
<path d="M66.349 99.9937C66.349 99.9937 67.5061 79.9662 73.513 84.517C79.5199 89.0677 70.8897 101.851 70.8897 101.851L66.349 99.9937Z" fill="#FFB9B9"/>
<path d="M44.0005 159.4C44.0005 159.4 57.3439 174.38 49.8785 175.41C42.4131 176.439 39.4764 161.298 39.4764 161.298L44.0005 159.4Z" fill="#FFB9B9"/>
<path d="M26.5884 88.4934C28.2631 88.9341 29.7703 89.8598 30.9207 91.1543C32.0711 92.4487 32.8133 94.0542 33.0542 95.7691L37.2987 125.979L43.2488 150.077C43.2488 150.077 46.2238 152.755 45.0338 154.242C43.8438 155.73 46.5214 161.978 46.5214 161.978L39.0837 164.358C39.0837 164.358 38.1912 158.11 36.7036 157.813C35.3964 157.551 20.7622 118.458 17.2347 108.987C16.7484 107.681 16.4731 106.939 16.4731 106.939C16.4731 106.939 17.0682 87.0058 26.5884 88.4934Z" fill="#575A89"/>
<path d="M27.9469 246.036L32.5154 254.132C36.0532 261.685 32.9093 263.057 24.2351 259.313L22.2578 249.753L27.9469 246.036Z" fill="#FFB9B9"/>
<path d="M30.252 256.796C30.252 256.796 32.4207 253.265 33.205 253.856C33.9894 254.447 37.2248 257.008 37.2248 257.008L41.4389 261.044C41.4389 261.044 55.6767 262.549 46.6297 267.538C37.5827 272.527 32.583 268.39 32.583 268.39C32.583 268.39 19.9118 269.049 20.1162 265.514C20.3206 261.979 24.4071 256.386 24.4071 256.386C24.4071 256.386 29.5576 259.839 30.252 256.796Z" fill="#2F2E41"/>
<path d="M7.67459 154.525L11.9575 206.348C11.9575 206.348 12.1003 237.327 16.6687 243.323C21.2371 249.319 21.3799 252.317 21.3799 252.317L30.8022 247.464C30.8022 247.464 25.9483 239.375 26.9476 238.137C27.5637 237.352 28.002 236.442 28.2325 235.471L25.6628 203.492L30.5167 147.815L7.67459 154.525Z" fill="#2F2E41"/>
<path d="M19.381 246.036L15.3836 256.6L6.31815 252.81L11.1008 244.894L19.381 246.036Z" fill="#FFB9B9"/>
<path d="M12.7123 253.042C12.7123 253.042 16.1124 250.917 16.5374 251.767C16.9624 252.617 18.6624 256.23 18.6624 256.23L20.5749 261.542C20.5749 261.542 32.2625 268.98 22.2749 269.405C12.2873 269.83 9.73732 264.092 9.73732 264.092C9.73732 264.092 -1.52526 259.205 0.174765 256.23C1.87479 253.255 7.82482 250.169 7.82482 250.169C7.82482 250.169 10.7998 255.38 12.7123 253.042Z" fill="#2F2E41"/>
<path d="M43.9365 154.667L46.2207 202.35C46.2207 202.35 25.3772 245.465 23.093 246.607C22.4124 246.958 21.809 247.443 21.3186 248.031C20.8282 248.62 20.4607 249.3 20.2377 250.033L7.67456 246.892L13.3851 237.756L25.9483 207.204C25.9483 207.204 27.947 206.348 28.518 203.492C29.0891 200.637 30.2312 200.637 27.3759 200.066C24.5207 199.495 24.5206 196.64 24.5206 196.64L15.0983 153.24L43.9365 154.667Z" fill="#2F2E41"/>
<path d="M44.9311 70.2678C45.9415 64.0415 41.7132 58.1751 35.4869 57.1647C29.2607 56.1543 23.3943 60.3826 22.3839 66.6089C21.3735 72.8351 25.6018 78.7015 31.828 79.7119C38.0543 80.7223 43.9207 76.494 44.9311 70.2678Z" fill="#FFB9B9"/>
<path d="M23.5213 69.1521C23.5213 69.1521 22.6648 83.714 21.5227 85.1416C20.3806 86.5692 33.5148 86.2837 33.5148 86.2837C33.5148 86.2837 32.6582 74.0061 33.5148 72.8639C34.3714 71.7218 23.5213 69.1521 23.5213 69.1521Z" fill="#FFB9B9"/>
<path d="M44.792 157.808C44.792 157.808 12.5274 154.954 6.53287 157.808C6.53287 157.808 8.73963 149.622 8.16942 148.767C7.75473 148.141 8.89884 124.822 8.53969 111.37C8.33604 103.78 6.5847 96.3672 11.6758 90.7318C13.4086 88.8176 15.3414 87.2106 17.3815 86.4257C17.3815 86.4257 16.8113 81.0014 19.6661 80.7163C19.6661 80.7163 30.5184 79.5721 34.5135 83.0008C35.791 84.0893 36.5944 87.4069 36.6796 90.2653C34.7024 99.9884 35.4022 110.778 37.2165 121.971C37.3275 122.682 37.4497 123.396 37.5719 124.111C39.4973 135.211 42.4075 146.656 44.792 157.808Z" fill="#575A89"/>
<path d="M27.6909 71.8037C28.6568 71.7461 29.5999 72.0725 30.5591 72.1998C33.9908 72.6554 37.5608 70.1652 38.3185 66.7874C38.3792 66.3376 38.5133 65.9007 38.7154 65.4943C39.2435 64.632 40.4464 64.4676 41.4379 64.6659C42.4295 64.8642 43.3694 65.3282 44.3792 65.3812C45.9384 65.463 47.4352 64.5031 48.2661 63.1813C49.0514 61.8177 49.3853 60.2406 49.2202 58.6757L48.4727 59.4602C48.169 58.8177 48.0517 58.1028 48.1343 57.3969C47.7382 57.2914 47.3216 57.2893 46.9245 57.391C46.5274 57.4926 46.1631 57.6944 45.8663 57.9772C45.2073 58.0473 45.7047 56.7547 45.215 56.308C44.9769 56.1617 44.6931 56.1086 44.4181 56.1589C43.016 56.1724 41.8818 55.1 40.7769 54.2367C38.8626 52.7442 36.6239 51.7231 34.2419 51.2558C32.6587 50.947 30.9751 50.8974 29.4736 51.4869C28.2615 52.031 27.1676 52.807 26.2535 53.7711C23.9027 56.0315 21.8211 58.6874 20.8432 61.7985C20.0482 64.3467 20.0256 67.0733 20.7785 69.6344C21.1725 70.9644 22.3601 75.5193 24.0987 75.6254C26.2834 75.7586 24.9717 71.9659 27.6909 71.8037Z" fill="#2F2E41"/>
<path d="M32.4184 89.8951L36.5102 90.3335C36.5102 90.3335 40.5269 98.1262 40.2352 99.7516C39.9435 101.377 39.3082 100.39 41.1161 102.991C42.9239 105.591 48.0539 112.313 48.6892 113.3C49.3244 114.287 66.6427 101.073 65.566 97.1145C65.566 97.1145 71.0356 101.038 73.3789 101.561C73.3789 101.561 55.531 124.968 53.0439 127.963C50.5567 130.959 48.555 130.344 45.137 128.568C41.719 126.792 24.4273 109.076 24.4273 109.076L32.4184 89.8951Z" fill="#575A89"/>
<path opacity="0.1" d="M37.5719 124.111L23.3502 109.889L26.9491 108.715L37.2165 121.971C37.3276 122.682 37.4497 123.396 37.5719 124.111Z" fill="black"/>
</g>
<defs>
<clipPath id="clip0_50_338">
<rect width="357.608" height="270" fill="white"/>
</clipPath>
</defs>
</svg>
